<svg width="24" height="24" viewBox="0 0 24 24" fill="none" xmlns="http://www.w3.org/2000/svg">
<path d="M14.742 6C13.5491 5.99935 12.4053 5.5251 11.562 4.6815L10.317 3.4395C10.0365 3.15891 9.65625 3.00088 9.2595 3H3.75C3.35706 2.99993 2.97979 3.15405 2.69929 3.42922C2.41879 3.70439 2.25747 4.07864 2.25 4.4715L2.319 6H0.819L0.75 4.5C0.75 3.70435 1.06607 2.94129 1.62868 2.37868C2.19129 1.81607 2.95435 1.5 3.75 1.5H9.258C10.0536 1.50017 10.8165 1.81635 11.379 2.379L12.621 3.621C13.1835 4.18365 13.9464 4.49983 14.742 4.5V6Z" fill="#737373"/>
<path fill-rule="evenodd" clip-rule="evenodd" d="M20.715 6H3.28501C3.07664 5.99999 2.87055 6.04339 2.67988 6.12744C2.48921 6.21149 2.31815 6.33434 2.17759 6.48816C2.03703 6.64199 1.93006 6.82341 1.8635 7.02086C1.79695 7.21832 1.77226 7.42747 1.79101 7.635L2.74651 18.135C2.78019 18.5077 2.95196 18.8543 3.2281 19.1069C3.50423 19.3594 3.8648 19.4996 4.23901 19.5H19.761C20.1352 19.4996 20.4958 19.3594 20.7719 19.1069C21.0481 18.8543 21.2198 18.5077 21.2535 18.135L22.209 7.635C22.2278 7.42747 22.2031 7.21832 22.1365 7.02086C22.07 6.82341 21.963 6.64199 21.8224 6.48816C21.6819 6.33434 21.5108 6.21149 21.3201 6.12744C21.1295 6.04339 20.9234 5.99999 20.715 6ZM3.28501 4.5C2.86813 4.49996 2.45582 4.5868 2.07437 4.75499C1.69292 4.92317 1.35071 5.16902 1.06957 5.47683C0.788432 5.78465 0.574531 6.14768 0.441514 6.54276C0.308496 6.93785 0.259282 7.35633 0.297009 7.7715L1.25251 18.2715C1.32024 19.0169 1.66415 19.71 2.2167 20.2148C2.76926 20.7197 3.49057 20.9997 4.23901 21H19.761C20.5095 20.9997 21.2308 20.7197 21.7833 20.2148C22.3359 19.71 22.6798 19.0169 22.7475 18.2715L23.703 7.7715C23.7407 7.35633 23.6915 6.93785 23.5585 6.54276C23.4255 6.14768 23.2116 5.78465 22.9304 5.47683C22.6493 5.16902 22.3071 4.92317 21.9257 4.75499C21.5442 4.5868 21.1319 4.49996 20.715 4.5H3.28501Z" fill="#737373"/>
</svg>
