<svg width="24" height="24" viewBox="0 0 24 24" fill="none" xmlns="http://www.w3.org/2000/svg">
<g clip-path="url(#clip0)">
<path fill-rule="evenodd" clip-rule="evenodd" d="M13.2667 2.45021C12.8977 1.19771 11.1247 1.19771 10.7557 2.45021L10.6147 2.92871C10.4962 3.33063 10.2892 3.70093 10.0089 4.01249C9.72871 4.32406 9.38233 4.56898 8.99518 4.72934C8.60803 4.88969 8.18991 4.96141 7.77145 4.93924C7.35299 4.91707 6.94479 4.80158 6.57674 4.60121L6.13874 4.36121C4.99274 3.73871 3.73874 4.99121 4.36274 6.13871L4.60124 6.57671C4.80161 6.94475 4.9171 7.35296 4.93927 7.77142C4.96144 8.18988 4.88972 8.608 4.72937 8.99515C4.56901 9.3823 4.32409 9.72868 4.01253 10.0089C3.70096 10.2891 3.33066 10.4961 2.92874 10.6147L2.45024 10.7557C1.19774 11.1247 1.19774 12.8977 2.45024 13.2667L2.92874 13.4077C3.33087 13.5262 3.70138 13.7333 4.01309 14.0136C4.32481 14.2939 4.56984 14.6405 4.73021 15.0278C4.89059 15.4152 4.96224 15.8335 4.93993 16.2521C4.91761 16.6708 4.80189 17.0791 4.60124 17.4472L4.36124 17.8837C3.73874 19.0297 4.99124 20.2837 6.13874 19.6597L6.57674 19.4212C6.94488 19.2209 7.35318 19.1054 7.77173 19.0834C8.19027 19.0613 8.60845 19.1331 8.99562 19.2936C9.38279 19.4541 9.72915 19.6992 10.0093 20.011C10.2895 20.3227 10.4963 20.6932 10.6147 21.0952L10.7557 21.5722C11.1247 22.8247 12.8977 22.8247 13.2667 21.5722L13.4077 21.0937C13.5263 20.6916 13.7333 20.3211 14.0136 20.0094C14.294 19.6976 14.6405 19.4526 15.0279 19.2922C15.4152 19.1319 15.8335 19.0602 16.2522 19.0825C16.6708 19.1048 17.0791 19.2206 17.4472 19.4212L17.8837 19.6612C19.0297 20.2837 20.2837 19.0312 19.6597 17.8837L19.4212 17.4472C19.2206 17.079 19.105 16.6706 19.0827 16.2519C19.0605 15.8331 19.1323 15.4148 19.2928 15.0274C19.4534 14.64 19.6985 14.2935 20.0104 14.0132C20.3223 13.733 20.693 13.5261 21.0952 13.4077L21.5722 13.2667C22.8247 12.8977 22.8247 11.1247 21.5722 10.7557L21.0937 10.6147C20.6918 10.4961 20.3215 10.2891 20.01 10.0089C19.6984 9.72868 19.4535 9.3823 19.2931 8.99515C19.1328 8.608 19.061 8.18988 19.0832 7.77142C19.1054 7.35296 19.2209 6.94475 19.4212 6.57671L19.6612 6.13871C20.2837 4.99271 19.0312 3.73871 17.8837 4.36271L17.4472 4.60121C17.0791 4.80214 16.6706 4.91809 16.2518 4.94055C15.833 4.96302 15.4144 4.89142 15.0269 4.73103C14.6394 4.57063 14.2927 4.32551 14.0122 4.01363C13.7318 3.70176 13.5247 3.33105 13.4062 2.92871L13.2652 2.45021H13.2667ZM9.31724 2.02571C10.1077 -0.659287 13.9147 -0.659287 14.7052 2.02571L14.8462 2.50421C14.9015 2.69164 14.9979 2.86434 15.1285 3.00965C15.2591 3.15496 15.4206 3.2692 15.6011 3.34399C15.7816 3.41878 15.9766 3.45223 16.1717 3.44189C16.3668 3.43155 16.5572 3.37767 16.7287 3.28421L17.1667 3.04421C19.6267 1.70621 22.3177 4.39571 20.9767 6.85571L20.7382 7.29371C20.6448 7.4653 20.5909 7.65563 20.5806 7.85075C20.5702 8.04586 20.6037 8.24082 20.6785 8.42133C20.7533 8.60183 20.8675 8.76332 21.0128 8.89394C21.1581 9.02456 21.3308 9.12101 21.5182 9.17621L21.9967 9.31721C24.6817 10.1077 24.6817 13.9147 21.9967 14.7052L21.5182 14.8462C21.3308 14.9014 21.1581 14.9979 21.0128 15.1285C20.8675 15.2591 20.7533 15.4206 20.6785 15.6011C20.6037 15.7816 20.5702 15.9766 20.5806 16.1717C20.5909 16.3668 20.6448 16.5571 20.7382 16.7287L20.9782 17.1667C22.3177 19.6267 19.6252 22.3177 17.1667 20.9767L16.7287 20.7382C16.5572 20.6448 16.3668 20.5909 16.1717 20.5805C15.9766 20.5702 15.7816 20.6036 15.6011 20.6784C15.4206 20.7532 15.2591 20.8675 15.1285 21.0128C14.9979 21.1581 14.9015 21.3308 14.8462 21.5182L14.7052 21.9967C13.9147 24.6817 10.1077 24.6817 9.31724 21.9967L9.17624 21.5182C9.12104 21.3308 9.02459 21.1581 8.89397 21.0128C8.76335 20.8675 8.60186 20.7532 8.42136 20.6784C8.24085 20.6036 8.04589 20.5702 7.85078 20.5805C7.65566 20.5909 7.46533 20.6448 7.29374 20.7382L6.85574 20.9782C4.39574 22.3177 1.70624 19.6252 3.04574 17.1667L3.28424 16.7287C3.3777 16.5571 3.43158 16.3668 3.44192 16.1717C3.45226 15.9766 3.41881 15.7816 3.34402 15.6011C3.26923 15.4206 3.15499 15.2591 3.00968 15.1285C2.86437 14.9979 2.69167 14.9014 2.50424 14.8462L2.02574 14.7052C-0.659257 13.9147 -0.659257 10.1077 2.02574 9.31721L2.50424 9.17621C2.69167 9.12101 2.86437 9.02456 3.00968 8.89394C3.15499 8.76332 3.26923 8.60183 3.34402 8.42133C3.41881 8.24082 3.45226 8.04586 3.44192 7.85075C3.43158 7.65563 3.3777 7.4653 3.28424 7.29371L3.04424 6.85571C1.70624 4.39571 4.39724 1.70621 6.85574 3.04571L7.29374 3.28421C7.46533 3.37767 7.65566 3.43155 7.85078 3.44189C8.04589 3.45223 8.24085 3.41878 8.42136 3.34399C8.60186 3.2692 8.76335 3.15496 8.89397 3.00965C9.02459 2.86434 9.12104 2.69164 9.17624 2.50421L9.31724 2.02571Z" fill="#737373"/>
<path fill-rule="evenodd" clip-rule="evenodd" d="M12 8.63098C11.1065 8.63098 10.2495 8.98593 9.61774 9.61774C8.98593 10.2495 8.63098 11.1065 8.63098 12C8.63098 12.8935 8.98593 13.7504 9.61774 14.3822C10.2495 15.014 11.1065 15.369 12 15.369C12.8935 15.369 13.7504 15.014 14.3822 14.3822C15.014 13.7504 15.369 12.8935 15.369 12C15.369 11.1065 15.014 10.2495 14.3822 9.61774C13.7504 8.98593 12.8935 8.63098 12 8.63098ZM7.13098 12C7.13098 11.3606 7.25692 10.7274 7.50161 10.1367C7.7463 9.54596 8.10495 9.00921 8.55708 8.55708C9.00921 8.10495 9.54596 7.7463 10.1367 7.50161C10.7274 7.25692 11.3606 7.13098 12 7.13098C12.6394 7.13098 13.2725 7.25692 13.8633 7.50161C14.454 7.7463 14.9908 8.10495 15.4429 8.55708C15.895 9.00921 16.2537 9.54596 16.4984 10.1367C16.743 10.7274 16.869 11.3606 16.869 12C16.869 13.2913 16.356 14.5298 15.4429 15.4429C14.5298 16.356 13.2913 16.869 12 16.869C10.7086 16.869 9.47019 16.356 8.55708 15.4429C7.64396 14.5298 7.13098 13.2913 7.13098 12Z" fill="#737373"/>
</g>
<defs>
<clipPath id="clip0">
<rect width="24" height="24" fill="white"/>
</clipPath>
</defs>
</svg>
